PathFileType	4	(X/Y/Z)	OpenSim_Sub01_CSBaseline_Gyro.trc
DataRate	CameraRate	NumFrames	NumMarkers	Units	OrigDataRate	OrigDataStartFrame	OrigNumFrames
100	100	37	8	m	100	1	5950
Frame#	Time	torso_imu_offset_imu	pelvis_imu_offset_imu	tibia_r_imu_offset_imu	femur_r_imu_offset_imu	tibia_l_imu_offset_imu	femur_l_imu_offset_imu	toes_r_imu_offset_imu	toes_l_imu_offset_imu
				X1	Y1	Z1	X2	Y2	Z2	X3	Y3	Z3	X4	Y4	Z4	X5	Y5	Z5	X6	Y6	Z6	X7	Y7	Z7	X8		Y8	Z8	

1	0	0.00935603	-0.01621620	-0.05878858	-0.01603929	0.11009773	-0.00754361	0.01489446	-0.00052006	0.04037358	-0.05953841	0.01462125	-0.00372704	-0.01314236	-0.00380241	-0.03518415	0.01209562	0.00002164	0.01914937	0.00215544	0.01074022	0.00459820	-0.00495221	0.01849486	-0.00264187
2	0.01000000	0.00321262	-0.01622885	-0.06146473	-0.01858728	0.08904140	-0.00488245	0.01492433	-0.00079210	0.03561377	-0.05089683	0.01287553	-0.00217962	-0.02155686	-0.00311709	-0.02731399	-0.00616943	-0.00287243	0.01722931	0.00306798	0.01127096	0.00448995	-0.00538957	0.02122571	-0.00149518
3	0.02000000	-0.00300396	-0.01958911	-0.06254630	-0.02044431	0.06615200	-0.00249661	0.01550002	-0.00062096	0.03052159	-0.04013491	0.01141801	0.00096928	-0.02703293	-0.00219622	-0.01875802	-0.02117725	-0.00386404	0.01475578	0.00374896	0.01200892	0.00470417	-0.00614336	0.02321246	-0.00088610
4	0.03000000	-0.00770140	-0.02385033	-0.06031771	-0.02182428	0.04502940	-0.00081087	0.01602618	-0.00087032	0.02533695	-0.02765964	0.00946756	0.00607523	-0.02787710	0.00004095	-0.01127489	-0.03127081	-0.00192139	0.01116997	0.00387513	0.01221432	0.00481630	-0.00727517	0.02319441	-0.00106149
5	0.04000000	-0.01102429	-0.03023934	-0.05412341	-0.02271066	0.02678164	0.00016071	0.01515885	-0.00152800	0.01988466	-0.01441044	0.00756683	0.01227793	-0.02499153	0.00353871	-0.00520148	-0.03933060	0.00141262	0.00648278	0.00352225	0.01184591	0.00452951	-0.00846014	0.02163109	-0.00144770
6	0.05000000	-0.01413881	-0.04213643	-0.04393944	-0.02295199	0.01104851	0.00064644	0.01111927	-0.00206555	0.01374704	-0.00164405	0.00703443	0.01800292	-0.02080739	0.00757136	-0.00003674	-0.05089495	0.00308194	0.00104047	0.00300105	0.01127379	0.00362356	-0.00914683	0.01999378	-0.00098998
7	0.06000000	-0.01758096	-0.06003714	-0.03106477	-0.02260955	-0.00217947	0.00089496	0.00357944	-0.00205446	0.00700536	0.00868948	0.00814789	0.02234711	-0.01728997	0.01149564	0.00455337	-0.06750295	0.00123534	-0.00495948	0.00252937	0.01071213	0.00213368	-0.00908493	0.01910754	0.00075230
8	0.07000000	-0.02045106	-0.07793842	-0.01973203	-0.02222313	-0.01208688	0.00119317	-0.00453909	-0.00130401	0.00086135	0.01310226	0.00883941	0.02592590	-0.01532090	0.01487172	0.00850596	-0.08169364	-0.00324650	-0.01166119	0.00211092	0.01001539	0.00066288	-0.00870251	0.01832626	0.00283558
9	0.08000000	-0.02180026	-0.08945021	-0.01425934	-0.02234240	-0.01800416	0.00179858	-0.01012634	0.00029483	-0.00345748	0.00842665	0.00704914	0.02943548	-0.01547560	0.01729578	0.01170204	-0.08533517	-0.00903022	-0.01904895	0.00173998	0.00901072	-0.00018273	-0.00845880	0.01691424	0.00419828
10	0.09000000	-0.02217732	-0.09326488	-0.01574965	-0.02295072	-0.02192003	0.00261127	-0.01266577	0.00234003	-0.00602189	-0.00305073	0.00407572	0.03228513	-0.01668161	0.01845207	0.01399732	-0.07594157	-0.01392530	-0.02497984	0.00161212	0.00774554	-0.00055828	-0.00818720	0.01526542	0.00449377
11	0.10000000	-0.02301143	-0.09107586	-0.02340533	-0.02369784	-0.02738379	0.00332064	-0.01316856	0.00412923	-0.00766736	-0.01583033	0.00318976	0.03312870	-0.01689600	0.01807799	0.01523343	-0.05437274	-0.01524376	-0.02606731	0.00204013	0.00639781	-0.00106636	-0.00735375	0.01443713	0.00379781
12	0.11000000	-0.02507978	-0.08518764	-0.03559375	-0.02433383	-0.03634531	0.00363764	-0.01217603	0.00520009	-0.00898781	-0.02538301	0.00571147	0.03141820	-0.01441526	0.01616723	0.01542667	-0.02474279	-0.01203571	-0.02131271	0.00301369	0.00525455	-0.00197996	-0.00581387	0.01485732	0.00232279
13	0.12000000	-0.02767949	-0.07918156	-0.04887400	-0.02484215	-0.04714066	0.00332740	-0.00913717	0.00563452	-0.01001599	-0.02943761	0.00855239	0.02840831	-0.00832120	0.01328383	0.01498343	0.00166972	-0.00724378	-0.01508129	0.00379807	0.00484246	-0.00282371	-0.00430231	0.01553040	0.00057373
14	0.13000000	-0.02995947	-0.07639421	-0.05979144	-0.02524535	-0.05761974	0.00221670	-0.00364163	0.00558332	-0.01071524	-0.02640133	0.00843593	0.02550382	0.00179321	0.01009500	0.01433753	0.01375121	-0.00405900	-0.01197831	0.00367638	0.00561939	-0.00307128	-0.00360069	0.01539238	-0.00091533
15	0.14000000	-0.03160595	-0.07585164	-0.06727506	-0.02564341	-0.06566144	0.00069297	0.00174275	0.00514803	-0.01111607	-0.01853057	0.00630173	0.02314119	0.01215485	0.00753657	0.01366053	0.01209907	-0.00279979	-0.01159391	0.00312772	0.00699761	-0.00271599	-0.00374601	0.01466165	-0.00171967
16	0.15000000	-0.03262193	-0.07404376	-0.07165923	-0.02618148	-0.06916763	-0.00052750	0.00270351	0.00440131	-0.01128841	-0.01034544	0.00556722	0.02118647	0.01654019	0.00669926	0.01296996	0.00420496	-0.00209423	-0.01056772	0.00333269	0.00777572	-0.00205753	-0.00433609	0.01431125	-0.00148102
17	0.16000000	-0.03296257	-0.06888564	-0.07311558	-0.02690008	-0.06728196	-0.00111926	-0.00246612	0.00344632	-0.01125322	-0.00489347	0.00765233	0.01967761	0.01200206	0.00791305	0.01241258	-0.00542526	-0.00147929	-0.00721536	0.00462741	0.00742391	-0.00136697	-0.00498519	0.01492365	-0.00026531
18	0.17000000	-0.03246708	-0.06154525	-0.07141208	-0.02760498	-0.06191821	-0.00163843	-0.00960867	0.00245524	-0.01092112	-0.00187111	0.00944870	0.01905259	0.00297451	0.00980613	0.01242802	-0.01914682	-0.00256862	-0.00367728	0.00544351	0.00692850	-0.00084268	-0.00535689	0.01618807	0.00091700
19	0.18000000	-0.03094534	-0.05359188	-0.06636407	-0.02814655	-0.05521616	-0.00264963	-0.01406874	0.00163012	-0.01019987	-0.00055781	0.00770092	0.01969282	-0.00541766	0.01089346	0.01341020	-0.03951118	-0.00701436	-0.00234798	0.00418894	0.00733517	-0.00064565	-0.00518099	0.01767462	0.00104702
20	0.19000000	-0.02806643	-0.04619397	-0.05884010	-0.02916327	-0.04777937	-0.00357370	-0.01424159	0.00138564	-0.00912194	-0.00060936	0.00396135	0.02083700	-0.01122878	0.01089847	0.01487216	-0.06151167	-0.01396522	-0.00290251	0.00168805	0.00818456	-0.00065272	-0.00480241	0.01897182	0.00033856
21	0.20000000	-0.02342057	-0.04028266	-0.05032873	-0.03175350	-0.03930645	-0.00316042	-0.01032709	0.00225838	-0.00779291	-0.00190241	0.00260829	0.02105234	-0.01438976	0.01025727	0.01580978	-0.07570610	-0.02109366	-0.00341488	0.00018519	0.00813310	-0.00057362	-0.00492687	0.01968007	-0.00026919
22	0.21000000	-0.01748674	-0.03661105	-0.04206088	-0.03593793	-0.02978325	-0.00093725	-0.00357865	0.00403710	-0.00622189	-0.00408395	0.00586753	0.01945595	-0.01508377	0.00936083	0.01575640	-0.07754508	-0.02617970	-0.00263948	0.00077833	0.00661526	-0.00023283	-0.00583530	0.01962363	-0.00021537
23	0.22000000	-0.01272927	-0.03554192	-0.03467459	-0.03931941	-0.01986261	0.00181386	0.00245155	0.00483852	-0.00420068	-0.00628213	0.01108044	0.01641127	-0.01400272	0.00847889	0.01545935	-0.07352434	-0.02728605	-0.00089502	0.00196649	0.00482687	0.00028443	-0.00685034	0.01912591	0.00019589
24	0.23000000	-0.01149848	-0.03712524	-0.02867719	-0.03942942	-0.01040650	0.00370490	0.00425587	0.00284077	-0.00153652	-0.00779644	0.01517422	0.01245785	-0.01204305	0.00781637	0.01573031	-0.07079180	-0.02291434	0.00128154	0.00206014	0.00407631	0.00086744	-0.00723874	0.01857102	0.00057096
25	0.24000000	-0.01219424	-0.03872713	-0.02405476	-0.03643990	-0.00350470	0.00470378	0.00199743	-0.00080861	0.00150000	-0.01041967	0.01762357	0.00821219	-0.01150224	0.00707880	0.01634940	-0.06780029	-0.01570303	0.00328488	0.00105322	0.00437350	0.00150690	-0.00702861	0.01827221	0.00080065
26	0.25000000	-0.01089855	-0.03614330	-0.02048580	-0.03207721	-0.00196167	0.00557679	-0.00199664	-0.00321664	0.00436561	-0.01740044	0.01940427	0.00433547	-0.01548958	0.00567959	0.01648975	-0.05789189	-0.01071803	0.00447080	-0.00006887	0.00496372	0.00225284	-0.00669656	0.01850018	0.00094333
27	0.26000000	-0.00634906	-0.02789826	-0.01762618	-0.02738422	-0.00654529	0.00677869	-0.00569381	-0.00282239	0.00664312	-0.02879979	0.02114833	0.00134101	-0.02400228	0.00356571	0.01564783	-0.03834372	-0.01029598	0.00449562	-0.00067192	0.00537729	0.00305951	-0.00658811	0.01936120	0.00101284
28	0.27000000	-0.00327577	-0.01865040	-0.01509019	-0.02183385	-0.01345866	0.00804598	-0.00778133	-0.00108734	0.00820451	-0.03752438	0.02267731	-0.00058906	-0.03007028	0.00188311	0.01405910	-0.01536057	-0.01061363	0.00368733	-0.00093389	0.00580263	0.00366567	-0.00674325	0.02059590	0.00091875
29	0.28000000	-0.00654305	-0.01350173	-0.01254039	-0.01480929	-0.01858980	0.00906602	-0.00716615	0.00027225	0.00896263	-0.03627530	0.02367774	-0.00140210	-0.02661322	0.00181405	0.01207021	0.00404881	-0.00753241	0.00240396	-0.00110571	0.00648811	0.00381327	-0.00714617	0.02188534	0.00058202
30	0.29000000	-0.01403173	-0.01356586	-0.01019567	-0.00696006	-0.02095007	0.01002196	-0.00401830	0.00113176	0.00884793	-0.02562493	0.02357389	-0.00191930	-0.01514452	0.00324104	0.01014339	0.01704590	-0.00226236	0.00037576	-0.00105711	0.00738213	0.00357824	-0.00763128	0.02280656	0.00018637
31	0.30000000	-0.01951769	-0.01760332	-0.00860119	0.00031912	-0.02139168	0.01138661	0.00074709	0.00230351	0.00780157	-0.01078653	0.02163852	-0.00347179	-0.00223926	0.00528023	0.00880714	0.02325935	0.00084046	-0.00303491	-0.00043430	0.00825628	0.00323256	-0.00794523	0.02287714	0.00006946
32	0.31000000	-0.01988704	-0.02431825	-0.00789531	0.00603348	-0.02041230	0.01303782	0.00620560	0.00417256	0.00582579	0.00355388	0.01781240	-0.00621704	0.00720024	0.00713717	0.00819106	0.02381674	-0.00062639	-0.00794771	0.00083020	0.00891486	0.00285118	-0.00794435	0.02201557	0.00033026
33	0.32000000	-0.01908406	-0.03235686	-0.00729933	0.01010200	-0.01766554	0.01351753	0.01143361	0.00614362	0.00305890	0.01402055	0.01353122	-0.00767906	0.01215013	0.00823891	0.00753275	0.02311895	-0.00461551	-0.01331585	0.00215851	0.00924032	0.00206377	-0.00773230	0.02103663	0.00053088
34	0.33000000	-0.02154290	-0.04036552	-0.00599100	0.01257272	-0.01280676	0.01141061	0.01555490	0.00754156	-0.00033283	0.01791474	0.01031540	-0.00536602	0.01231411	0.00810110	0.00605706	0.02551792	-0.00858034	-0.01800855	0.00294863	0.00915895	0.00051254	-0.00744958	0.02077571	0.00023697
35	0.34000000	-0.02689586	-0.04707313	-0.00397965	0.01354916	-0.00668902	0.00761103	0.01818142	0.00823651	-0.00408453	0.01769695	0.00847195	-0.00030121	0.00948977	0.00684435	0.00410316	0.03028786	-0.01103638	-0.02165704	0.00325071	0.00894069	-0.00140876	-0.00727180	0.02102891	-0.00019884
36	0.35000000	-0.03194770	-0.05125914	-0.00176346	0.01316861	-0.00086974	0.00436987	0.01921421	0.00842009	-0.00787279	0.01885682	0.00759307	0.00442385	0.00670518	0.00494553	0.00266469	0.03371448	-0.01113172	-0.02434004	0.00349926	0.00905672	-0.00286488	-0.00739400	0.02098121	0.00003741
37	0.36000000	-0.03458702	-0.05208895	0.00051183	0.01177977	0.00354896	0.00286128	0.01878531	0.00825261	-0.01130099	0.02384507	0.00748308	0.00685647	0.00599523	0.00274314	0.00212759	0.03354838	-0.00928856	-0.02570722	0.00405103	0.00967294	-0.00340503	-0.00775512	0.02022705	0.00114710
